<svg viewBox="-0.5 -0.5 16 16" fill="none" xmlns="http://www.w3.org/2000/svg" id="Watch-Round--Streamline-Solar" height="16" width="16"><desc>Watch Round Streamline Icon: https://streamlinehq.com</desc><path fill-rule="evenodd" clip-rule="evenodd" d="M7.5 11.8604375c2.4162500000000002 0 4.375 -1.95225 4.375 -4.3604375 0 -2.40821875 -1.95875 -4.360462500000001 -4.375 -4.360462500000001 -2.41624375 0 -4.375 1.95224375 -4.375 4.360462500000001 0 2.4081875 1.95875625 4.3604375 4.375 4.3604375Zm0 -6.585393750000001c0.241625 0 0.4375 0.195225 0.4375 0.43605V7.314375l1.032375 0.989375c0.1741875 0.16693750000000002 0.17962499999999998 0.4429375 0.012125 0.6165625 -0.16743750000000002 0.1735625 -0.44437499999999996 0.179 -0.6185625 0.0120625l-1.1666875 -1.1180625c-0.08574999999999999 -0.0821875 -0.13424999999999998 -0.1956875 -0.13424999999999998 -0.3143125V5.71109375c0 -0.240825 0.19587500000000002 -0.43605 0.4375 -0.43605Z" fill="#2700ff" stroke-width="1"></path><path d="M6.16155625 1.2964624999999999C6.508500000000001 1.2499687499999999 6.945562499999999 1.24998125 7.469687499999999 1.25h0.060625c0.524125 -0.00001875 0.9611875000000001 -0.00003125 1.308125 0.046462500000000004 0.36624999999999996 0.049068749999999994 0.696875 0.15701875 0.9625625 0.421825 0.26568749999999997 0.2648125 0.374 0.59434375 0.42318750000000005 0.95934375 0.0153125 0.11318750000000001 0.0255625 0.236 0.0325 0.36832499999999996 -0.80125 -0.493625 -1.7455625 -0.7785124999999999 -2.7566875 -0.7785124999999999 -1.0111249999999998 0 -1.95546875 0.2848875 -2.7566625 0.7785124999999999 0.006906250000000001 -0.132325 0.017175 -0.2551375 0.03244375 -0.36832499999999996 0.049237500000000003 -0.365 0.15754375 -0.69453125 0.4232375 -0.95934375 0.26568749999999997 -0.26480625 0.59631875 -0.37275625 0.9625375 -0.421825Z" fill="#2700ff" stroke-width="1"></path><path d="M9.801 13.281687499999999c0.26568749999999997 -0.2648125 0.374 -0.5943125 0.42318750000000005 -0.9593125 0.0153125 -0.11318750000000001 0.0255625 -0.236 0.0325 -0.36831250000000004 -0.80125 0.493625 -1.7455625 0.7785 -2.7566875 0.7785 -1.0111249999999998 0 -1.95546875 -0.284875 -2.7566625 -0.7785 0.006906250000000001 0.1323125 0.017175 0.255125 0.03244375 0.36831250000000004 0.049237500000000003 0.365 0.15754375 0.6945 0.4232375 0.9593125 0.26568749999999997 0.2648125 0.59631875 0.37275 0.9625375 0.421875C6.508500000000001 13.75 6.945562499999999 13.75 7.469687499999999 13.75h0.060625c0.524125 0 0.9611875000000001 0 1.308125 -0.04643750000000001 0.36624999999999996 -0.049125 0.696875 -0.15706250000000002 0.9625625 -0.421875Z" fill="#2700ff" stroke-width="1"></path></svg>